<svg width="18" height="19" viewBox="0 0 18 19" fill="none" xmlns="http://www.w3.org/2000/svg">
	<path d="M16.5625 3.125H1.4375C1.25516 3.125 1.0803 3.19743 0.951364 3.32636C0.822433 3.4553 0.75 3.63016 0.75 3.8125C0.75 3.99484 0.822433 4.1697 0.951364 4.29864C1.0803 4.42757 1.25516 4.5 1.4375 4.5H2.125V16.875C2.125 17.2397 2.26987 17.5894 2.52773 17.8473C2.78559 18.1051 3.13533 18.25 3.5 18.25H14.5C14.8647 18.25 15.2144 18.1051 15.4723 17.8473C15.7301 17.5894 15.875 17.2397 15.875 16.875V4.5H16.5625C16.7448 4.5 16.9197 4.42757 17.0486 4.29864C17.1776 4.1697 17.25 3.99484 17.25 3.8125C17.25 3.63016 17.1776 3.4553 17.0486 3.32636C16.9197 3.19743 16.7448 3.125 16.5625 3.125ZM14.5 16.875H3.5V4.5H14.5V16.875ZM4.875 1.0625C4.875 0.880164 4.94743 0.705295 5.07636 0.576364C5.2053 0.447433 5.38016 0.375 5.5625 0.375H12.4375C12.6198 0.375 12.7947 0.447433 12.9236 0.576364C13.0526 0.705295 13.125 0.880164 13.125 1.0625C13.125 1.24484 13.0526 1.4197 12.9236 1.54864C12.7947 1.67757 12.6198 1.75 12.4375 1.75H5.5625C5.38016 1.75 5.2053 1.67757 5.07636 1.54864C4.94743 1.4197 4.875 1.24484 4.875 1.0625Z" fill="#9E78CF" />
</svg>
